<svg width="152" height="19" viewBox="0 0 152 19" fill="none" xmlns="http://www.w3.org/2000/svg">
<g id="BenchFlux">
<path d="M0.68 18V0.887999L15.128 0.839999C17.032 0.839999 18.44 1.24 19.352 2.04C20.28 2.824 20.744 4.008 20.744 5.592C20.744 7.176 20.216 8.336 19.16 9.072C19.864 9.456 20.384 9.968 20.72 10.608C21.056 11.232 21.224 12.04 21.224 13.032C21.224 14.648 20.76 15.88 19.832 16.728C18.92 17.56 17.512 17.976 15.608 17.976L0.68 18ZM14.672 3.912H4.52V7.752H14.672C16.128 7.752 16.856 7.096 16.856 5.784C16.856 4.536 16.128 3.912 14.672 3.912ZM15.152 10.824H4.52V14.904H15.152C16.608 14.904 17.336 14.216 17.336 12.84C17.336 11.496 16.608 10.824 15.152 10.824ZM29.5957 18.12C27.4517 18.12 25.7797 17.592 24.5797 16.536C23.3797 15.464 22.7797 13.896 22.7797 11.832C22.7797 9.752 23.3797 8.184 24.5797 7.128C25.7797 6.056 27.4517 5.52 29.5957 5.52H35.5957C37.0037 5.52 38.0757 5.856 38.8117 6.528C39.5637 7.184 39.9397 8.128 39.9397 9.36C39.9397 11.872 38.4917 13.128 35.5957 13.128H26.5237C26.8597 14.616 27.8837 15.36 29.5957 15.36H39.3157V18.12H29.5957ZM29.5957 8.28C27.9477 8.28 26.9317 8.976 26.5477 10.368H35.4277C35.7477 10.368 35.9957 10.272 36.1717 10.08C36.3637 9.888 36.4597 9.624 36.4597 9.288C36.4597 8.616 36.1157 8.28 35.4277 8.28H29.5957ZM41.8634 18V5.64H52.6394C54.0474 5.64 55.0714 5.992 55.7114 6.696C56.3674 7.384 56.6954 8.296 56.6954 9.432V18H53.2154V9.84C53.2154 8.88 52.7354 8.4 51.7754 8.4H45.3434V18H41.8634ZM65.3032 18.12C63.1592 18.12 61.4872 17.592 60.2872 16.536C59.0872 15.464 58.4872 13.896 58.4872 11.832C58.4872 9.752 59.0872 8.184 60.2872 7.128C61.4872 6.056 63.1592 5.52 65.3032 5.52H73.3432V8.28H65.3032C64.2632 8.28 63.4632 8.568 62.9032 9.144C62.3592 9.72 62.0872 10.616 62.0872 11.832C62.0872 13.032 62.3592 13.92 62.9032 14.496C63.4632 15.072 64.2632 15.36 65.3032 15.36H73.5832V18.12H65.3032ZM75.1334 18V0.839999H78.6134V5.64H85.9094C87.3174 5.64 88.3414 5.992 88.9814 6.696C89.6374 7.384 89.9654 8.296 89.9654 9.432V18H86.4854V9.84C86.4854 8.88 86.0054 8.4 85.0454 8.4H78.6134V18H75.1334Z" fill="#626262"/>
<path d="M92.5972 18V0.839999H110.933V3.96H96.4372V8.712H109.061V11.832H96.4372V18H92.5972ZM112.974 18V0.839999H116.454V18H112.974ZM122.787 18C121.379 18 120.347 17.648 119.691 16.944C119.051 16.24 118.731 15.328 118.731 14.208V5.64H122.211V13.8C122.211 14.76 122.691 15.24 123.651 15.24H128.643C129.603 15.24 130.083 14.76 130.083 13.8V5.64H133.563V14.208C133.563 15.328 133.235 16.24 132.579 16.944C131.939 17.648 130.915 18 129.507 18H122.787ZM134.758 18L139.414 11.832L134.758 5.664H138.838L142.414 10.44H144.166L147.766 5.664H151.822L147.19 11.832L151.822 18H147.766L144.142 13.2H142.414L138.838 18H134.758Z" fill="black"/>
</g>
</svg>
